# xmcd
#
# Track frame offsets:
#	150
#	10567
#	23965
#	34657
#	47275
#	56625
#	68140
#	80008
#	91734
#	104961
#	116154
#	124762
#	138949
#	149451
#
# Disc length: 2139 seconds
#
# Revision: 1
# Processed by: cddbd v1.5.2PL0 Copyright (c) Steve Scherf et al.
# Submitted via: audiograbber 1.83.01
#
DISCID=bd08590e
DTITLE=Kieran McGilligan - Like A Favourite Song
DYEAR=2002
DGENRE=
TTITLE0=That Wonderful Picture Of You
TTITLE1=Hear The Wind Blow
TTITLE2=Run Samson Run
TTITLE3=Lost To A Stranger
TTITLE4=Gonna Knock On Your Door
TTITLE5=Sad To See Good Love Go Bad
TTITLE6=Don't Let The Stars Get In Your Eyes
TTITLE7=Thinking Tonight Of My Blue Eyes
TTITLE8=I Wanna Dance With You
TTITLE9=Blue Boy
TTITLE10=See The Girl Dance
TTITLE11=Just Like A Favourite Song
TTITLE12=My Heartaches Got Heartaches
TTITLE13=Lucky Break
EXTD=
EXTT0=
EXTT1=
EXTT2=
EXTT3=
EXTT4=
EXTT5=
EXTT6=
EXTT7=
EXTT8=
EXTT9=
EXTT10=
EXTT11=
EXTT12=
EXTT13=
PLAYORDER=
